{
	"asset":{
		"generator":"Khronos glTF Blender I/O v4.0.44",
		"version":"2.0"
	},
	"scene":0,
	"scenes":[
		{
			"name":"Scene",
			"nodes":[
				2
			]
		}
	],
	"nodes":[
		{
			"mesh":0,
			"name":"Object_2"
		},
		{
			"children":[
				0
			],
			"name":"3dace5162d02441ea3b63cc9dd78a76c.obj.cleaner"
		},
		{
			"children":[
				1
			],
			"name":"Sketchfab_model",
			"rotation":[
				-0.70710688829422,
				0,
				0,
				0.7071066498756409
			]
		}
	],
	"materials":[
		{
			"name":"material_0",
			"normalTexture":{
				"index":0
			},
			"occlusionTexture":{
				"index":1
			},
			"pbrMetallicRoughness":{
				"baseColorTexture":{
					"index":2
				},
				"metallicRoughnessTexture":{
					"index":1
				}
			}
		}
	],
	"meshes":[
		{
			"name":"Object_0",
			"primitives":[
				{
					"attributes":{
						"POSITION":0,
						"NORMAL":1,
						"TEXCOORD_0":2
					},
					"indices":3,
					"material":0
				}
			]
		}
	],
	"textures":[
		{
			"sampler":0,
			"source":0
		},
		{
			"sampler":0,
			"source":1
		},
		{
			"sampler":0,
			"source":2
		}
	],
	"images":[
		{
			"mimeType":"image/jpeg",
			"name":"material_0_normal",
			"uri":"textures/material_0_normal.jpg"
		},
		{
			"mimeType":"image/png",
			"name":"material_0_metallicRoughness",
			"uri":"textures/material_0_metallicRoughness.png"
		},
		{
			"mimeType":"image/jpeg",
			"name":"material_0_baseColor",
			"uri":"textures/material_0_baseColor.jpg"
		}
	],
	"accessors":[
		{
			"bufferView":0,
			"componentType":5126,
			"count":773,
			"max":[
				4.957871913909912,
				1.33297598361969,
				9.444024085998535
			],
			"min":[
				-6.5852460861206055,
				-0.21247200667858124,
				-12.778702735900879
			],
			"type":"VEC3"
		},
		{
			"bufferView":1,
			"componentType":5126,
			"count":773,
			"type":"VEC3"
		},
		{
			"bufferView":2,
			"componentType":5126,
			"count":773,
			"type":"VEC2"
		},
		{
			"bufferView":3,
			"componentType":5123,
			"count":3852,
			"type":"SCALAR"
		}
	],
	"bufferViews":[
		{
			"buffer":0,
			"byteLength":9276,
			"byteOffset":0,
			"target":34962
		},
		{
			"buffer":0,
			"byteLength":9276,
			"byteOffset":9276,
			"target":34962
		},
		{
			"buffer":0,
			"byteLength":6184,
			"byteOffset":18552,
			"target":34962
		},
		{
			"buffer":0,
			"byteLength":7704,
			"byteOffset":24736,
			"target":34963
		}
	],
	"samplers":[
		{
			"magFilter":9729,
			"minFilter":9987
		}
	],
	"buffers":[
		{
			"byteLength":32440,
			"uri":"scene.bin"
		}
	]
}
