{
	"asset":{
		"generator":"Khronos glTF Blender I/O v3.6.27",
		"version":"2.0"
	},
	"scene":0,
	"scenes":[
		{
			"name":"Scene",
			"nodes":[
				0
			]
		}
	],
	"nodes":[
		{
			"mesh":0,
			"name":"Cerberus00_Fixed",
			"scale":[
				0.009999999776482582,
				0.009999999776482582,
				0.009999999776482582
			],
			"translation":[
				0,
				0,
				-0.9372016191482544
			]
		}
	],
	"materials":[
		{
			"doubleSided":true,
			"name":"Material.001",
			"normalTexture":{
				"index":0
			},
			"pbrMetallicRoughness":{
				"baseColorTexture":{
					"index":1
				},
				"metallicRoughnessTexture":{
					"index":2
				}
			}
		}
	],
	"meshes":[
		{
			"name":"Mesh",
			"primitives":[
				{
					"attributes":{
						"POSITION":0,
						"NORMAL":1,
						"TEXCOORD_0":2,
						"TANGENT":3
					},
					"indices":4,
					"material":0
				}
			]
		}
	],
	"textures":[
		{
			"sampler":0,
			"source":0
		},
		{
			"sampler":0,
			"source":1
		},
		{
			"sampler":0,
			"source":2
		}
	],
	"images":[
		{
			"mimeType":"image/png",
			"name":"cerberus_N",
			"uri":"cerberus_N.png"
		},
		{
			"mimeType":"image/png",
			"name":"cerberus_A",
			"uri":"cerberus_A.png"
		},
		{
			"mimeType":"image/png",
			"name":"cerberus_M-cerberus_R",
			"uri":"cerberus_M-cerberus_R.png"
		}
	],
	"accessors":[
		{
			"bufferView":0,
			"componentType":5126,
			"count":26334,
			"max":[
				12.520315170288086,
				18.77880096435547,
				130.2689666748047
			],
			"min":[
				-19.99312400817871,
				-47.20871353149414,
				-25.837120056152344
			],
			"type":"VEC3"
		},
		{
			"bufferView":1,
			"componentType":5126,
			"count":26334,
			"type":"VEC3"
		},
		{
			"bufferView":2,
			"componentType":5126,
			"count":26334,
			"type":"VEC2"
		},
		{
			"bufferView":3,
			"componentType":5126,
			"count":26334,
			"type":"VEC4"
		},
		{
			"bufferView":4,
			"componentType":5123,
			"count":100623,
			"type":"SCALAR"
		}
	],
	"bufferViews":[
		{
			"buffer":0,
			"byteLength":316008,
			"byteOffset":0,
			"target":34962
		},
		{
			"buffer":0,
			"byteLength":316008,
			"byteOffset":316008,
			"target":34962
		},
		{
			"buffer":0,
			"byteLength":210672,
			"byteOffset":632016,
			"target":34962
		},
		{
			"buffer":0,
			"byteLength":421344,
			"byteOffset":842688,
			"target":34962
		},
		{
			"buffer":0,
			"byteLength":201246,
			"byteOffset":1264032,
			"target":34963
		}
	],
	"samplers":[
		{
			"magFilter":9729,
			"minFilter":9987
		}
	],
	"buffers":[
		{
			"byteLength":1465280,
			"uri":"cerberus.bin"
		}
	]
}
